<svg width="258" height="100" viewBox="0 0 258 100" fill="none" xmlns="http://www.w3.org/2000/svg">
    <path
        d="M0.718506 30H5.28747L19.8564 51.8362L34.434 30H39.003V70H34.4857V37.6034L19.9168 59.0259H19.684L5.11506 37.6638V70H0.718506V30Z"
        fill="black" />
    <path
        d="M70.8564 36.9052H73.6064L85.4512 63.0948H82.296L79.2529 56.1983H65.0978L62.0115 63.0948H59.0029L70.8564 36.9052ZM78.0977 53.5862L72.1926 40.3276L66.2443 53.5862H78.0977Z"
        fill="black" />
    <path
        d="M70.8564 36.9052H73.6064L85.4512 63.0948H82.296L79.2529 56.1983H65.0978L62.0115 63.0948H59.0029L70.8564 36.9052ZM78.0978 53.5862L72.1926 40.3276L66.2443 53.5862H78.0978Z"
        stroke="black" stroke-width="0.317693" stroke-miterlimit="10" />
    <path
        d="M105.451 30H122.477C127.046 30 130.65 31.319 132.934 33.5517C133.771 34.3908 134.431 35.3893 134.875 36.488C135.319 37.5867 135.539 38.7633 135.52 39.9483V40.0603C135.52 45.2328 132.313 47.9397 129.175 49.319C133.917 50.7414 137.744 53.4914 137.744 58.9741V59.0862C137.744 65.9828 131.969 70 123.227 70H105.451V30ZM130.934 40.5776C130.934 36.6293 127.796 34.0603 122.081 34.0603H109.908V47.8534H121.736C127.167 47.8534 130.934 45.4052 130.934 40.7155V40.5776ZM122.538 51.8362H109.908V65.9483H123.339C129.374 65.9483 133.167 63.2586 133.167 58.8017V58.6896C133.167 54.3793 129.503 51.7931 122.538 51.7931"
        fill="black" />
    <path
        d="M157.744 30H186.658V34.1121H162.253V47.7759H184.089V51.8879H162.253V65.8879H186.943V70H157.744V30Z"
        fill="black" />
    <path
        d="M248.742 61.5304C248.876 62.3698 249.255 63.1509 249.832 63.7746C250.41 64.3984 251.159 64.8369 251.986 65.0347C252.813 65.2324 253.679 65.1805 254.476 64.8855C255.274 64.5905 255.965 64.0657 256.464 63.3774C256.963 62.6892 257.246 61.8684 257.278 61.0191C257.311 60.1697 257.09 59.3299 256.645 58.6059C256.2 57.8819 255.55 57.3062 254.777 56.9517C254.005 56.5973 253.144 56.4799 252.305 56.6145C251.179 56.7928 250.17 57.4108 249.5 58.3325C248.83 59.2543 248.553 60.4045 248.73 61.5304"
        fill="#00AB96" />
    <path
        d="M249.704 48.2035C249.816 48.9177 250.137 49.5826 250.627 50.1141C251.117 50.6457 251.754 51.0199 252.457 51.1896C253.16 51.3593 253.897 51.3168 254.575 51.0675C255.254 50.8182 255.843 50.3732 256.269 49.7889C256.695 49.2046 256.938 48.5071 256.967 47.7848C256.996 47.0624 256.811 46.3476 256.434 45.7307C256.057 45.1138 255.506 44.6225 254.85 44.319C254.193 44.0154 253.462 43.9133 252.748 44.0254C252.273 44.0994 251.818 44.2662 251.408 44.5163C250.998 44.7664 250.642 45.0949 250.359 45.483C250.076 45.8711 249.873 46.3112 249.76 46.778C249.648 47.2448 249.629 47.7292 249.704 48.2035Z"
        fill="#00AB96" />
    <path
        d="M247.478 35.0832C247.549 35.5353 247.753 35.9561 248.063 36.2924C248.374 36.6286 248.777 36.8653 249.222 36.9724C249.667 37.0795 250.134 37.0523 250.563 36.8941C250.993 36.736 251.366 36.4541 251.635 36.084C251.905 35.7139 252.058 35.2722 252.077 34.8149C252.095 34.3575 251.977 33.905 251.738 33.5145C251.5 33.124 251.15 32.8131 250.735 32.6211C250.32 32.429 249.856 32.3645 249.404 32.4355C249.104 32.4828 248.816 32.5888 248.556 32.7474C248.297 32.906 248.071 33.1143 247.892 33.3601C247.713 33.606 247.585 33.8848 247.513 34.1804C247.442 34.4761 247.43 34.7828 247.478 35.0832Z"
        fill="#00AB96" />
    <path
        d="M244.092 74.1319C244.222 74.9558 244.592 75.7227 245.158 76.3358C245.723 76.9488 246.458 77.3804 247.269 77.576C248.079 77.7715 248.93 77.7222 249.712 77.4343C250.495 77.1465 251.175 76.6329 251.666 75.9586C252.156 75.2844 252.436 74.4797 252.47 73.6464C252.503 72.8131 252.289 71.9886 251.853 71.2772C251.418 70.5658 250.782 69.9995 250.025 69.6499C249.267 69.3002 248.424 69.183 247.6 69.313C246.496 69.4872 245.506 70.0927 244.848 70.9963C244.191 71.9 243.919 73.0278 244.092 74.1319Z"
        fill="#00AB96" />
    <path
        d="M237.937 85.6418C238.048 86.3432 238.364 86.996 238.846 87.5176C239.328 88.0392 239.954 88.4063 240.644 88.5725C241.335 88.7387 242.059 88.6965 242.725 88.4513C243.392 88.206 243.97 87.7688 244.388 87.1947C244.807 86.6206 245.045 85.9356 245.074 85.226C245.103 84.5165 244.921 83.8143 244.55 83.2082C244.18 82.6021 243.639 82.1194 242.995 81.8209C242.35 81.5224 241.632 81.4216 240.93 81.5312C239.988 81.6795 239.144 82.1959 238.582 82.9667C238.021 83.7376 237.789 84.6998 237.937 85.6418Z"
        fill="#00AB96" />
    <path
        d="M234.724 98.1044C234.795 98.5437 234.993 98.9523 235.296 99.2787C235.598 99.6051 235.99 99.8345 236.423 99.9381C236.856 100.042 237.309 100.015 237.727 99.8608C238.144 99.7067 238.507 99.4325 238.768 99.0727C239.03 98.7128 239.179 98.2835 239.197 97.839C239.215 97.3945 239.1 96.9546 238.868 96.575C238.637 96.1953 238.297 95.8929 237.894 95.7059C237.49 95.5188 237.04 95.4556 236.6 95.5242C236.307 95.5693 236.026 95.6721 235.773 95.8264C235.52 95.9808 235.299 96.1838 235.125 96.4236C234.951 96.6635 234.825 96.9355 234.757 97.2239C234.688 97.5124 234.677 97.8117 234.724 98.1044Z"
        fill="#00AB96" />
    <path
        d="M225.491 38.4772C225.359 37.6369 224.981 36.8547 224.404 36.2295C223.827 35.6043 223.078 35.1641 222.251 34.9646C221.425 34.7652 220.557 34.8154 219.759 35.1089C218.961 35.4025 218.267 35.9262 217.767 36.6138C217.266 37.3014 216.98 38.122 216.946 38.9719C216.912 39.8218 217.13 40.6627 217.574 41.3884C218.018 42.114 218.667 42.6918 219.439 43.0487C220.211 43.4055 221.072 43.5253 221.912 43.3931C223.038 43.2157 224.048 42.5982 224.719 41.6763C225.391 40.7545 225.668 39.6037 225.491 38.4772Z"
        fill="#E7332A" />
    <path
        d="M224.53 51.8042C224.418 51.09 224.096 50.4251 223.606 49.8936C223.116 49.362 222.479 48.9877 221.777 48.8181C221.074 48.6484 220.337 48.6909 219.658 48.9402C218.979 49.1895 218.39 49.6345 217.964 50.2188C217.539 50.8031 217.296 51.5005 217.266 52.2229C217.237 52.9453 217.423 53.6601 217.8 54.277C218.176 54.8939 218.728 55.3852 219.384 55.6887C220.04 55.9923 220.772 56.0944 221.486 55.9823C222.443 55.8308 223.301 55.3059 223.872 54.5226C224.442 53.7393 224.679 52.7617 224.53 51.8042Z"
        fill="#E7332A" />
    <path
        d="M226.752 64.9286C226.681 64.4762 226.478 64.0549 226.168 63.718C225.858 63.3811 225.455 63.1437 225.01 63.036C224.564 62.9283 224.097 62.955 223.668 63.1128C223.238 63.2705 222.864 63.5523 222.595 63.9223C222.325 64.2924 222.171 64.7341 222.152 65.1917C222.134 65.6492 222.251 66.102 222.49 66.4927C222.729 66.8834 223.078 67.1945 223.494 67.3867C223.91 67.5788 224.373 67.6433 224.825 67.5721C225.125 67.5253 225.413 67.4198 225.673 67.2616C225.932 67.1034 226.158 66.8956 226.337 66.65C226.516 66.4045 226.645 66.126 226.716 65.8306C226.787 65.5353 226.799 65.2287 226.752 64.9286Z"
        fill="#E7332A" />
    <path
        d="M230.141 25.8755C230.012 25.0517 229.641 24.2848 229.076 23.6717C228.511 23.0587 227.777 22.6269 226.966 22.4311C226.156 22.2353 225.305 22.2842 224.523 22.5717C223.74 22.8592 223.06 23.3723 222.569 24.0461C222.078 24.72 221.798 25.5243 221.764 26.3575C221.73 27.1906 221.944 28.0151 222.378 28.7267C222.813 29.4383 223.449 30.005 224.205 30.3553C224.962 30.7055 225.806 30.8235 226.629 30.6944C227.176 30.6086 227.701 30.4159 228.174 30.1273C228.646 29.8387 229.057 29.4598 229.383 29.0123C229.71 28.5649 229.944 28.0575 230.074 27.5193C230.204 26.9811 230.227 26.4225 230.141 25.8755Z"
        fill="#E7332A" />
    <path
        d="M236.284 14.37C236.173 13.6684 235.856 13.0156 235.374 12.494C234.892 11.9724 234.266 11.6055 233.575 11.4396C232.885 11.2737 232.16 11.3162 231.494 11.5619C230.828 11.8075 230.249 12.2452 229.831 12.8197C229.413 13.3941 229.175 14.0795 229.147 14.7893C229.119 15.499 229.302 16.2012 229.672 16.807C230.043 17.4129 230.585 17.8952 231.23 18.1931C231.875 18.491 232.593 18.5911 233.295 18.4806C233.761 18.4072 234.208 18.2426 234.611 17.9962C235.014 17.7499 235.364 17.4266 235.641 17.0448C235.919 16.663 236.119 16.2303 236.229 15.7713C236.339 15.3124 236.358 14.8362 236.284 14.37Z"
        fill="#E7332A" />
    <path
        d="M239.51 1.90744C239.441 1.46649 239.242 1.05589 238.94 0.727596C238.638 0.399302 238.245 0.168075 237.811 0.0631775C237.377 -0.0417199 236.922 -0.015572 236.503 0.138312C236.084 0.292196 235.72 0.566899 235.458 0.927655C235.195 1.28841 235.045 1.719 235.027 2.16494C235.009 2.61087 235.124 3.0521 235.357 3.43279C235.59 3.81348 235.931 4.11651 236.336 4.30353C236.741 4.49055 237.193 4.55316 237.633 4.48343C238.224 4.39008 238.752 4.06641 239.104 3.58346C239.456 3.10052 239.602 2.49774 239.51 1.90744Z"
        fill="#E7332A" />
    <path d="M249.978 36.0868L238.755 36.4325L249.552 33.359L249.978 36.0868Z" fill="#00AB96" />
    <path d="M221.031 37.7816L234.345 37.1155L221.456 40.5094L221.031 37.7816Z" fill="#E7332A" />
    <path d="M220.719 51.0072L237.022 50.0206L221.115 53.7391L220.719 51.0072Z" fill="#E7332A" />
    <path d="M253.515 49.0003L237.022 50.0206L253.115 46.2726L253.515 49.0003Z" fill="#00AB96" />
    <path d="M224.214 63.9587L235.432 63.613L224.635 66.6823L224.214 63.9587Z" fill="#E7332A" />
    <path d="M253.195 62.2262L239.32 62.9302L252.782 59.4984L253.195 62.2262Z" fill="#00AB96" />
    <path d="M248.57 74.8446L236.052 75.3379L248.156 72.1127L248.57 74.8446Z" fill="#00AB96" />
    <path d="M241.693 86.4471L232.317 86.4682L241.28 83.7193L241.693 86.4471Z" fill="#00AB96" />
    <path d="M225.774 25.2431L238.295 24.792L226.178 27.9709L225.774 25.2431Z" fill="#E7332A" />
    <path d="M232.696 13.6659L242.073 13.6785L233.097 16.3936L232.696 13.6659Z" fill="#E7332A" />
</svg>