<svg width="380" height="324" viewBox="0 0 380 324" fill="none" xmlns="http://www.w3.org/2000/svg">
<path d="M176.716 22.8626C174.469 22.5097 172.377 21.4984 170.705 19.9566C169.033 18.4148 167.855 16.4116 167.321 14.2005C166.787 11.9894 166.921 9.66961 167.706 7.5345C168.49 5.39938 169.89 3.54483 171.728 2.20539C173.567 0.865946 175.761 0.101768 178.033 0.00947373C180.306 -0.0828209 182.555 0.500931 184.496 1.68689C186.437 2.87285 187.982 4.60775 188.937 6.67223C189.892 8.7367 190.214 11.038 189.861 13.2851C189.384 16.2968 187.733 18.9965 185.269 20.792C182.804 22.5875 179.729 23.3322 176.716 22.8626Z" fill="#E7332A"/>
<path d="M225.026 23.8865C223.17 23.595 221.442 22.7596 220.061 21.4859C218.679 20.2122 217.706 18.5574 217.265 16.7309C216.824 14.9043 216.935 12.9879 217.583 11.2241C218.231 9.46036 219.387 7.92834 220.906 6.82184C222.425 5.71535 224.237 5.08407 226.115 5.00783C227.992 4.93158 229.85 5.41381 231.453 6.39352C233.056 7.37323 234.333 8.8064 235.122 10.5118C235.911 12.2173 236.176 14.1184 235.885 15.9747C235.491 18.4626 234.127 20.6928 232.091 22.176C230.056 23.6593 227.515 24.2744 225.026 23.8865Z" fill="#E7332A"/>
<path d="M268.92 28.9083C267.552 28.6794 266.278 28.0209 265.259 27.016C264.24 26.0112 263.522 24.7052 263.196 23.2632C262.871 21.8212 262.951 20.3081 263.429 18.9154C263.906 17.5226 264.758 16.3127 265.877 15.4389C266.996 14.565 268.332 14.0664 269.716 14.0062C271.099 13.9459 272.469 14.3267 273.65 15.1004C274.832 15.8741 275.773 17.0059 276.354 18.3526C276.935 19.6993 277.13 21.2004 276.915 22.6659C276.773 23.6386 276.454 24.5719 275.976 25.4124C275.497 26.2528 274.869 26.9839 274.126 27.5637C273.384 28.1435 272.542 28.5608 271.648 28.7915C270.755 29.0222 269.828 29.0619 268.92 28.9083Z" fill="#E7332A"/>
<path d="M86.0268 32.8851C84.1707 32.5937 82.4427 31.7585 81.0612 30.4851C79.6797 29.2117 78.7069 27.5572 78.2657 25.7309C77.8244 23.9046 77.9347 21.9884 78.5824 20.2248C79.2302 18.4611 80.3864 16.9291 81.9048 15.8225C83.4232 14.716 85.2356 14.0844 87.1129 14.0079C88.9902 13.9313 90.848 14.4132 92.4515 15.3924C94.055 16.3717 95.3321 17.8045 96.1213 19.5096C96.9105 21.2146 97.1764 23.1154 96.8853 24.9716C96.6921 26.2042 96.2579 27.3867 95.6075 28.4515C94.9572 29.5163 94.1035 30.4426 93.0952 31.1775C92.0869 31.9123 90.9437 32.4414 89.7309 32.7344C88.5181 33.0273 87.2594 33.0786 86.0268 32.8851Z" fill="#E7332A"/>
<path d="M42.7477 44.9014C41.1853 44.6538 39.7314 43.9485 38.5698 42.8747C37.4081 41.801 36.5909 40.4069 36.2213 38.8688C35.8518 37.3307 35.9466 35.7175 36.4937 34.2332C37.0408 32.7489 38.0156 31.4602 39.295 30.5298C40.5744 29.5995 42.1009 29.0693 43.6816 29.0063C45.2622 28.9434 46.826 29.3504 48.1754 30.1761C49.5247 31.0017 50.599 32.2088 51.2624 33.6449C51.9259 35.081 52.1487 36.6815 51.9027 38.2441C51.7392 39.2826 51.3726 40.2787 50.8239 41.1754C50.2753 42.0721 49.5552 42.8519 48.705 43.4702C47.8547 44.0885 46.891 44.5331 45.8688 44.7787C44.8466 45.0242 43.7861 45.0659 42.7477 44.9014Z" fill="#E7332A"/>
<path d="M4.22831 54.9401C3.25085 54.7874 2.34065 54.3482 1.61291 53.678C0.885172 53.0078 0.372602 52.1368 0.140073 51.1752C-0.0924565 50.2136 -0.0344935 49.2046 0.306626 48.276C0.647746 47.3473 1.25669 46.5408 2.05639 45.9583C2.85609 45.3759 3.8106 45.0438 4.79912 45.004C5.78763 44.9643 6.76572 45.2187 7.60961 45.735C8.45349 46.2514 9.12522 47.0065 9.5398 47.9047C9.95438 48.803 10.0932 49.804 9.93859 50.7812C9.73166 52.0894 9.01418 53.2619 7.94361 54.0417C6.87304 54.8214 5.53685 55.1445 4.22831 54.9401Z" fill="#E7332A"/>
<path d="M203.284 301.137C205.531 301.49 207.623 302.502 209.295 304.043C210.967 305.585 212.145 307.588 212.679 309.799C213.213 312.011 213.079 314.33 212.294 316.466C211.51 318.601 210.11 320.455 208.272 321.795C206.433 323.134 204.239 323.898 201.967 323.991C199.694 324.083 197.445 323.499 195.504 322.313C193.563 321.127 192.018 319.392 191.063 317.328C190.108 315.263 189.786 312.962 190.139 310.715C190.616 307.703 192.267 305.003 194.731 303.208C197.196 301.412 200.271 300.668 203.284 301.137Z" fill="#00AB96"/>
<path d="M154.974 300.119C156.83 300.426 158.558 301.306 159.939 302.646C161.321 303.987 162.294 305.729 162.735 307.652C163.176 309.574 163.065 311.592 162.417 313.448C161.769 315.305 160.613 316.918 159.094 318.082C157.575 319.247 155.763 319.912 153.885 319.992C152.008 320.072 150.15 319.564 148.547 318.533C146.944 317.502 145.667 315.993 144.878 314.198C144.089 312.403 143.824 310.402 144.115 308.448C144.509 305.829 145.873 303.481 147.909 301.92C149.944 300.359 152.485 299.711 154.974 300.119Z" fill="#00AB96"/>
<path d="M111.08 296.086C112.448 296.299 113.722 296.914 114.741 297.852C115.76 298.79 116.478 300.009 116.804 301.354C117.129 302.7 117.049 304.112 116.571 305.412C116.094 306.712 115.242 307.841 114.123 308.657C113.004 309.473 111.668 309.938 110.284 309.994C108.901 310.05 107.531 309.695 106.35 308.973C105.168 308.251 104.227 307.194 103.646 305.938C103.065 304.681 102.87 303.28 103.085 301.912C103.227 301.004 103.546 300.133 104.024 299.348C104.503 298.564 105.131 297.882 105.874 297.341C106.616 296.799 107.458 296.41 108.352 296.195C109.245 295.979 110.172 295.942 111.08 296.086Z" fill="#00AB96"/>
<path d="M337.252 279.099C338.815 279.346 340.269 280.052 341.43 281.125C342.592 282.199 343.409 283.593 343.779 285.131C344.148 286.669 344.053 288.283 343.506 289.767C342.959 291.251 341.984 292.54 340.705 293.47C339.426 294.401 337.899 294.931 336.318 294.994C334.738 295.057 333.174 294.65 331.825 293.824C330.475 292.998 329.401 291.791 328.738 290.355C328.074 288.919 327.851 287.319 328.097 285.756C328.261 284.717 328.627 283.721 329.176 282.825C329.725 281.928 330.445 281.148 331.295 280.53C332.145 279.912 333.109 279.467 334.131 279.221C335.153 278.976 336.214 278.934 337.252 279.099Z" fill="#00AB96"/>
<path d="M375.772 269.06C376.749 269.213 377.659 269.652 378.387 270.322C379.115 270.992 379.627 271.863 379.86 272.825C380.092 273.786 380.034 274.795 379.693 275.724C379.352 276.653 378.743 277.459 377.944 278.042C377.144 278.624 376.189 278.956 375.201 278.996C374.212 279.036 373.234 278.781 372.39 278.265C371.547 277.749 370.875 276.994 370.46 276.095C370.046 275.197 369.907 274.196 370.061 273.219C370.268 271.911 370.986 270.738 372.056 269.958C373.127 269.179 374.463 268.856 375.772 269.06Z" fill="#00AB96"/>
<path d="M249.131 299.134C251.182 299.471 253.092 300.439 254.619 301.914C256.145 303.389 257.22 305.305 257.707 307.42C258.194 309.535 258.072 311.754 257.355 313.796C256.638 315.838 255.359 317.612 253.681 318.892C252.002 320.173 249.998 320.903 247.923 320.991C245.848 321.079 243.794 320.52 242.023 319.385C240.251 318.25 238.84 316.59 237.969 314.615C237.097 312.64 236.805 310.439 237.128 308.289C237.561 305.408 239.069 302.825 241.319 301.108C243.57 299.391 246.38 298.68 249.131 299.134Z" fill="#00AB96"/>
<path d="M115.864 268.697L105.654 305.119L114.423 306.507L115.864 268.697Z" fill="#00AB96"/>
<path d="M126.963 54.7072L137.305 18.3625L128.536 16.9736L126.963 54.7072Z" fill="#E7332A"/>
<path d="M161.589 266.921L150.935 303.013L159.704 304.402L161.589 266.921Z" fill="#00AB96"/>
<path d="M172.243 56.039L182.252 18.3625L173.483 16.9736L172.243 56.039Z" fill="#E7332A"/>
<path d="M253.037 270.916L243.271 308.801L250.236 309.904L253.037 270.916Z" fill="#00AB96"/>
<path d="M263.248 60.4783L272.857 23.4038L265.892 22.3007L263.248 60.4783Z" fill="#E7332A"/>
<path d="M83.8377 53.1629L90.4966 31.4105L83.4304 30.2914L83.8377 53.1629Z" fill="#E7332A"/>
<path d="M208.645 267.365L197.991 306.564L206.76 307.953L208.645 267.365Z" fill="#00AB96"/>
<path d="M218.855 60.9221L229.308 21.9139L220.539 20.525L218.855 60.9221Z" fill="#E7332A"/>
<path d="M40.1744 58.2586L48.9436 35.2316L40.1744 33.8427L40.1744 58.2586Z" fill="#E7332A"/>
<path d="M33.7829 247.846L27.0149 266.003L33.2944 266.928L33.7829 247.846Z" fill="#00AB96"/>
<path d="M339.937 264.605L331.168 287.632L339.937 289.021L339.937 264.605Z" fill="#00AB96"/>
<path d="M70.9392 283.08C72.111 283.281 73.2014 283.854 74.0727 284.727C74.9439 285.599 75.5568 286.732 75.834 287.982C76.1111 289.231 76.0401 290.542 75.6297 291.748C75.2194 292.954 74.4883 294.001 73.5287 294.757C72.5692 295.513 71.4243 295.944 70.2388 295.995C69.0533 296.046 67.8805 295.715 66.8685 295.044C65.8565 294.374 65.0507 293.393 64.5532 292.226C64.0556 291.059 63.8885 289.759 64.073 288.489C64.1956 287.645 64.4705 286.836 64.8821 286.108C65.2936 285.379 65.8336 284.745 66.4713 284.243C67.1089 283.741 67.8318 283.379 68.5984 283.18C69.365 282.98 70.1605 282.946 70.9392 283.08Z" fill="#00AB96"/>
<path d="M74.4666 262.925L66.6254 288.442L73.6915 289.561L74.4666 262.925Z" fill="#00AB96"/>
<path d="M293.551 291.115C295.505 291.406 297.324 292.241 298.778 293.515C300.232 294.788 301.256 296.443 301.72 298.269C302.185 300.095 302.069 302.012 301.387 303.775C300.705 305.539 299.488 307.071 297.89 308.177C296.291 309.284 294.384 309.916 292.407 309.992C290.431 310.069 288.476 309.587 286.788 308.608C285.1 307.628 283.756 306.196 282.925 304.49C282.094 302.785 281.814 300.885 282.121 299.028C282.324 297.796 282.781 296.613 283.466 295.548C284.15 294.484 285.049 293.557 286.11 292.823C287.172 292.088 288.375 291.559 289.652 291.266C290.928 290.973 292.253 290.921 293.551 291.115Z" fill="#00AB96"/>
<path d="M295.931 271.084L289.273 292.836L296.339 293.955L295.931 271.084Z" fill="#00AB96"/>
<path d="M308.483 40.926C307.213 40.7403 306.032 40.2114 305.088 39.406C304.144 38.6007 303.48 37.5552 303.18 36.4016C302.88 35.248 302.957 34.0381 303.401 32.9249C303.846 31.8117 304.638 30.8451 305.677 30.1474C306.717 29.4496 307.957 29.052 309.241 29.0048C310.526 28.9575 311.796 29.2628 312.892 29.8821C313.989 30.5013 314.862 31.4066 315.401 32.4837C315.94 33.5607 316.121 34.7611 315.921 35.9331C315.788 36.7119 315.49 37.459 315.044 38.1315C314.599 38.8041 314.014 39.3889 313.323 39.8526C312.632 40.3163 311.849 40.6498 311.018 40.834C310.188 41.0182 309.326 41.0495 308.483 40.926Z" fill="#E7332A"/>
<path d="M305.303 61.3215L313.144 35.8046L306.078 34.6854L305.303 61.3215Z" fill="#E7332A"/>
<path d="M131.292 24.8726C129.142 24.55 127.142 23.6264 125.542 22.2183C123.943 20.8103 122.817 18.9812 122.307 16.9623C121.797 14.9434 121.925 12.8255 122.676 10.8763C123.427 8.92707 124.766 7.23419 126.525 6.01173C128.284 4.78928 130.383 4.09215 132.557 4.00852C134.731 3.92489 136.882 4.45851 138.738 5.54189C140.594 6.62527 142.072 8.20975 142.985 10.0949C143.898 11.9801 144.205 14.0814 143.866 16.1329C143.413 18.8834 141.833 21.3493 139.475 22.9882C137.117 24.6272 134.173 25.305 131.292 24.8726Z" fill="#E7332A"/>
<path d="M30.5175 262.08C31.7869 262.281 32.9682 262.854 33.9121 263.727C34.8559 264.599 35.5199 265.732 35.8202 266.982C36.1204 268.231 36.0434 269.542 35.5989 270.748C35.1544 271.954 34.3623 273.001 33.3228 273.757C32.2833 274.513 31.043 274.944 29.7587 274.995C28.4745 275.046 27.2038 274.715 26.1075 274.044C25.0112 273.374 24.1383 272.393 23.5993 271.226C23.0602 270.059 22.8792 268.759 23.0791 267.489C23.2119 266.645 23.5098 265.836 23.9556 265.108C24.4014 264.379 24.9864 263.745 25.6772 263.243C26.368 262.741 27.1511 262.379 27.9816 262.18C28.8121 261.98 29.6738 261.946 30.5175 262.08Z" fill="#00AB96"/>
<path d="M343.406 76.0086L350.174 57.8511L343.895 56.9269L343.406 76.0086Z" fill="#E7332A"/>
<path d="M347.061 60.926C345.889 60.7403 344.799 60.2114 343.927 59.406C343.056 58.6007 342.443 57.5552 342.166 56.4016C341.889 55.248 341.96 54.0381 342.37 52.9249C342.781 51.8117 343.512 50.8451 344.471 50.1474C345.431 49.4496 346.576 49.052 347.761 49.0048C348.947 48.9575 350.12 49.2628 351.132 49.8821C352.144 50.5013 352.949 51.4066 353.447 52.4837C353.944 53.5607 354.112 54.7611 353.927 55.9331C353.804 56.7119 353.529 57.459 353.118 58.1315C352.706 58.8041 352.166 59.3889 351.529 59.8526C350.891 60.3163 350.168 60.6498 349.402 60.834C348.635 61.0182 347.84 61.0495 347.061 60.926Z" fill="#E7332A"/>
</svg>
