<svg width="212" height="80" viewBox="0 0 212 80" fill="none" xmlns="http://www.w3.org/2000/svg">
    <path
        d="M0.374756 24H4.02993L15.6851 41.469L27.3472 24H31.0023V56H27.3885V30.0828L15.7334 47.2207H15.5472L3.892 30.131V56H0.374756V24Z"
        fill="white" />
    <path
        d="M56.4851 29.5241H58.6851L68.1609 50.4759H65.6368L63.2023 44.9586H51.8782L49.4092 50.4759H47.0023L56.4851 29.5241ZM62.2782 42.869L57.554 32.2621L52.7954 42.869H62.2782Z"
        fill="white" />
    <path
        d="M56.4851 29.5241H58.6851L68.1609 50.4759H65.6368L63.2023 44.9586H51.8782L49.4092 50.4759H47.0023L56.4851 29.5241ZM62.2782 42.869L57.554 32.2621L52.7954 42.869H62.2782Z"
        stroke="white" stroke-width="0.317693" stroke-miterlimit="10" />
    <path
        d="M84.1609 24H97.7816C101.437 24 104.32 25.0552 106.147 26.8414C106.817 27.5127 107.345 28.3114 107.7 29.1904C108.055 30.0693 108.231 31.0107 108.216 31.9586V32.0483C108.216 36.1862 105.651 38.3517 103.14 39.4552C106.933 40.5931 109.995 42.7931 109.995 47.1793V47.269C109.995 52.7862 105.375 56 98.3816 56H84.1609V24ZM104.547 32.4621C104.547 29.3034 102.037 27.2483 97.4643 27.2483H87.7264V38.2828H97.1885C101.533 38.2828 104.547 36.3241 104.547 32.5724V32.4621ZM97.8299 41.469H87.7264V52.7586H98.4712C103.299 52.7586 106.333 50.6069 106.333 47.0414V46.9517C106.333 43.5034 103.402 41.4345 97.8299 41.4345"
        fill="white" />
    <path
        d="M125.995 24H149.126V27.2897H129.602V38.2207H147.071V41.5103H129.602V52.7103H149.354V56H125.995V24Z"
        fill="white" />
    <path
        d="M204.794 49.2243C204.901 49.8959 205.204 50.5207 205.666 51.0197C206.128 51.5187 206.727 51.8695 207.389 52.0277C208.05 52.1859 208.743 52.1444 209.381 51.9084C210.019 51.6724 210.572 51.2525 210.971 50.7019C211.37 50.1513 211.597 49.4948 211.623 48.8153C211.648 48.1358 211.472 47.4639 211.116 46.8847C210.76 46.3055 210.24 45.845 209.622 45.5614C209.004 45.2778 208.315 45.1839 207.644 45.2916C206.743 45.4343 205.936 45.9286 205.4 46.666C204.864 47.4034 204.642 48.3236 204.784 49.2243"
        fill="#00AB96" />
    <path
        d="M205.563 38.5628C205.653 39.1342 205.91 39.6661 206.302 40.0913C206.694 40.5165 207.203 40.8159 207.765 40.9517C208.328 41.0875 208.917 41.0535 209.46 40.854C210.003 40.6545 210.475 40.2986 210.815 39.8311C211.156 39.3637 211.35 38.8057 211.374 38.2278C211.397 37.6499 211.249 37.0781 210.947 36.5845C210.646 36.091 210.204 35.698 209.68 35.4552C209.155 35.2123 208.57 35.1306 207.998 35.2203C207.619 35.2795 207.254 35.4129 206.927 35.613C206.599 35.8131 206.313 36.0759 206.087 36.3864C205.861 36.6969 205.698 37.0489 205.608 37.4224C205.518 37.7959 205.503 38.1834 205.563 38.5628Z"
        fill="#00AB96" />
    <path
        d="M203.782 28.0666C203.839 28.4283 204.002 28.7649 204.251 29.0339C204.499 29.3029 204.822 29.4922 205.178 29.5779C205.534 29.6636 205.907 29.6418 206.251 29.5153C206.595 29.3888 206.893 29.1632 207.108 28.8672C207.324 28.5711 207.447 28.2178 207.461 27.8519C207.476 27.486 207.382 27.124 207.191 26.8116C207 26.4992 206.721 26.2505 206.388 26.0969C206.056 25.9432 205.685 25.8916 205.324 25.9484C205.083 25.9862 204.853 26.071 204.645 26.1979C204.438 26.3248 204.257 26.4914 204.114 26.6881C203.971 26.8848 203.868 27.1078 203.811 27.3443C203.754 27.5808 203.744 27.8263 203.782 28.0666Z"
        fill="#00AB96" />
    <path
        d="M201.074 59.3055C201.177 59.9646 201.474 60.5782 201.926 61.0686C202.379 61.5591 202.966 61.9043 203.615 62.0608C204.263 62.2172 204.944 62.1778 205.57 61.9475C206.196 61.7172 206.74 61.3063 207.132 60.7669C207.525 60.2275 207.749 59.5838 207.776 58.9171C207.802 58.2505 207.631 57.5909 207.283 57.0218C206.934 56.4527 206.425 55.9996 205.82 55.7199C205.214 55.4402 204.539 55.3464 203.88 55.4504C202.997 55.5898 202.205 56.0742 201.679 56.7971C201.152 57.52 200.935 58.4222 201.074 59.3055Z"
        fill="#00AB96" />
    <path
        d="M196.149 68.5135C196.238 69.0746 196.491 69.5968 196.877 70.0141C197.262 70.4314 197.763 70.7251 198.315 70.858C198.868 70.991 199.447 70.9572 199.98 70.761C200.513 70.5648 200.976 70.215 201.311 69.7558C201.645 69.2965 201.836 68.7485 201.859 68.1808C201.882 67.6132 201.736 67.0514 201.44 66.5666C201.144 66.0817 200.711 65.6955 200.196 65.4567C199.68 65.2179 199.105 65.1373 198.544 65.225C197.79 65.3436 197.115 65.7567 196.666 66.3734C196.217 66.9901 196.031 67.7598 196.149 68.5135Z"
        fill="#00AB96" />
    <path
        d="M193.579 78.4835C193.636 78.835 193.795 79.1619 194.037 79.4229C194.278 79.684 194.592 79.8676 194.938 79.9505C195.284 80.0334 195.647 80.0118 195.981 79.8886C196.315 79.7654 196.605 79.546 196.814 79.2581C197.024 78.9703 197.143 78.6268 197.157 78.2712C197.172 77.9156 197.08 77.5637 196.895 77.26C196.709 76.9562 196.438 76.7143 196.115 76.5647C195.792 76.4151 195.432 76.3645 195.08 76.4193C194.846 76.4555 194.621 76.5376 194.418 76.6611C194.216 76.7846 194.039 76.947 193.9 77.1389C193.76 77.3308 193.66 77.5484 193.605 77.7791C193.55 78.0099 193.541 78.2493 193.579 78.4835Z"
        fill="#00AB96" />
    <path
        d="M186.193 30.7817C186.087 30.1096 185.784 29.4838 185.323 28.9836C184.862 28.4834 184.263 28.1313 183.601 27.9717C182.94 27.8121 182.246 27.8523 181.607 28.0871C180.968 28.322 180.414 28.7409 180.013 29.291C179.613 29.8411 179.384 30.4976 179.357 31.1775C179.329 31.8574 179.504 32.5301 179.859 33.1107C180.214 33.6912 180.733 34.1534 181.351 34.4389C181.969 34.7244 182.657 34.8203 183.329 34.7145C184.23 34.5726 185.038 34.0786 185.575 33.3411C186.112 32.6036 186.334 31.683 186.193 30.7817Z"
        fill="#E7332A" />
    <path
        d="M185.424 41.4433C185.334 40.872 185.077 40.3401 184.685 39.9148C184.293 39.4896 183.783 39.1902 183.221 39.0544C182.659 38.9187 182.069 38.9527 181.526 39.1522C180.983 39.3516 180.512 39.7076 180.171 40.175C179.831 40.6425 179.636 41.2004 179.613 41.7783C179.59 42.3562 179.738 42.9281 180.04 43.4216C180.341 43.9151 180.782 44.3082 181.307 44.551C181.832 44.7938 182.417 44.8755 182.988 44.7858C183.754 44.6646 184.441 44.2447 184.897 43.6181C185.354 42.9915 185.543 42.2094 185.424 41.4433Z"
        fill="#E7332A" />
    <path
        d="M187.201 51.9429C187.145 51.5809 186.982 51.2439 186.734 50.9744C186.486 50.7048 186.163 50.515 185.807 50.4288C185.451 50.3426 185.078 50.364 184.734 50.4902C184.39 50.6164 184.091 50.8418 183.875 51.1378C183.66 51.4339 183.536 51.7873 183.522 52.1533C183.507 52.5193 183.601 52.8816 183.792 53.1941C183.983 53.5067 184.262 53.7556 184.595 53.9093C184.927 54.063 185.298 54.1146 185.66 54.0576C185.9 54.0202 186.13 53.9358 186.338 53.8093C186.546 53.6827 186.726 53.5164 186.869 53.32C187.012 53.1236 187.115 52.9008 187.172 52.6645C187.229 52.4282 187.239 52.183 187.201 51.9429Z"
        fill="#E7332A" />
    <path
        d="M189.913 20.7004C189.809 20.0414 189.513 19.4279 189.061 18.9374C188.609 18.4469 188.021 18.1015 187.373 17.9449C186.724 17.7883 186.044 17.8274 185.418 18.0574C184.792 18.2873 184.248 18.6978 183.855 19.2369C183.462 19.776 183.238 20.4195 183.211 21.086C183.184 21.7525 183.355 22.4121 183.702 22.9814C184.05 23.5506 184.559 24.004 185.164 24.2842C185.769 24.5644 186.444 24.6588 187.103 24.5555C187.541 24.4869 187.961 24.3327 188.339 24.1019C188.717 23.871 189.046 23.5679 189.307 23.2099C189.567 22.8519 189.755 22.446 189.859 22.0154C189.963 21.5849 189.982 21.138 189.913 20.7004Z"
        fill="#E7332A" />
    <path
        d="M194.827 11.496C194.738 10.9348 194.485 10.4125 194.099 9.99525C193.713 9.57798 193.213 9.28442 192.66 9.15168C192.108 9.01894 191.528 9.05299 190.995 9.2495C190.462 9.44602 189.999 9.7962 189.665 10.2558C189.331 10.7153 189.14 11.2637 189.118 11.8314C189.095 12.3992 189.241 12.9609 189.538 13.4456C189.834 13.9303 190.268 14.3162 190.784 14.5545C191.3 14.7928 191.874 14.8729 192.436 14.7845C192.809 14.7258 193.167 14.5941 193.489 14.397C193.811 14.1999 194.091 13.9413 194.313 13.6359C194.535 13.3305 194.695 12.9843 194.783 12.6171C194.871 12.2499 194.886 11.869 194.827 11.496Z"
        fill="#E7332A" />
    <path
        d="M197.407 1.52596C197.352 1.1732 197.194 0.844721 196.952 0.582086C196.71 0.319451 196.396 0.134469 196.049 0.0505511C195.702 -0.0333668 195.337 -0.0124484 195.002 0.110659C194.667 0.233766 194.376 0.453528 194.166 0.742133C193.956 1.03074 193.836 1.37521 193.822 1.73196C193.807 2.08871 193.899 2.44169 194.085 2.74624C194.272 3.05079 194.544 3.29321 194.868 3.44283C195.193 3.59245 195.554 3.64254 195.906 3.58675C196.379 3.51207 196.802 3.25314 197.083 2.86678C197.365 2.48042 197.481 1.9982 197.407 1.52596Z"
        fill="#E7332A" />
    <path d="M205.782 28.8694L196.804 29.146L205.441 26.6872L205.782 28.8694Z" fill="#00AB96" />
    <path d="M182.624 30.2253L193.276 29.6924L182.965 32.4075L182.624 30.2253Z" fill="#E7332A" />
    <path d="M182.375 40.8057L195.417 40.0165L182.692 42.9913L182.375 40.8057Z" fill="#E7332A" />
    <path d="M208.612 39.2003L195.417 40.0165L208.292 37.0181L208.612 39.2003Z" fill="#00AB96" />
    <path d="M185.171 51.167L194.146 50.8904L185.508 53.3458L185.171 51.167Z" fill="#E7332A" />
    <path d="M208.356 49.7809L197.256 50.3442L208.025 47.5987L208.356 49.7809Z" fill="#00AB96" />
    <path d="M204.655 59.8757L194.642 60.2703L204.325 57.6901L204.655 59.8757Z" fill="#00AB96" />
    <path d="M199.154 69.1577L191.653 69.1745L198.824 66.9755L199.154 69.1577Z" fill="#00AB96" />
    <path d="M186.419 20.1945L196.436 19.8336L186.743 22.3767L186.419 20.1945Z" fill="#E7332A" />
    <path d="M191.957 10.9327L199.458 10.9428L192.277 13.1149L191.957 10.9327Z" fill="#E7332A" />
</svg>