<svg width="354" height="78" viewBox="0 0 354 78" fill="none" xmlns="http://www.w3.org/2000/svg">
<path d="M176.716 23.5577C174.469 23.2048 172.377 22.1935 170.705 20.6517C169.033 19.1098 167.855 17.1067 167.321 14.8956C166.787 12.6845 166.921 10.3647 167.706 8.22956C168.49 6.09445 169.89 4.2399 171.728 2.90046C173.567 1.56101 175.761 0.796837 178.033 0.704542C180.306 0.612248 182.555 1.196 184.496 2.38196C186.437 3.56792 187.982 5.30282 188.937 7.36729C189.892 9.43177 190.214 11.7331 189.861 13.9802C189.384 16.9919 187.733 19.6916 185.269 21.4871C182.804 23.2826 179.729 24.0272 176.716 23.5577Z" fill="#E7332A"/>
<path d="M225.026 24.5816C223.17 24.2901 221.442 23.4547 220.061 22.181C218.679 20.9073 217.706 19.2525 217.265 17.4259C216.824 15.5994 216.935 13.683 217.583 11.9192C218.231 10.1554 219.387 8.6234 220.906 7.51691C222.425 6.41042 224.237 5.77914 226.115 5.70289C227.992 5.62665 229.85 6.10888 231.453 7.08859C233.056 8.06829 234.333 9.50147 235.122 11.2069C235.911 12.9123 236.176 14.8134 235.885 16.6698C235.491 19.1577 234.127 21.3879 232.091 22.8711C230.056 24.3543 227.515 24.9695 225.026 24.5816Z" fill="#E7332A"/>
<path d="M268.92 29.6034C267.552 29.3745 266.278 28.716 265.259 27.7111C264.24 26.7063 263.522 25.4002 263.196 23.9583C262.871 22.5163 262.951 21.0032 263.429 19.6104C263.906 18.2177 264.758 17.0078 265.877 16.1339C266.996 15.2601 268.332 14.7615 269.716 14.7013C271.099 14.641 272.469 15.0218 273.65 15.7955C274.832 16.5692 275.773 17.701 276.354 19.0477C276.935 20.3944 277.13 21.8955 276.915 23.361C276.773 24.3337 276.454 25.267 275.976 26.1074C275.497 26.9479 274.869 27.6789 274.126 28.2588C273.384 28.8386 272.542 29.2558 271.648 29.4866C270.755 29.7173 269.828 29.757 268.92 29.6034Z" fill="#E7332A"/>
<path d="M86.0268 33.5801C84.1707 33.2888 82.4427 32.4536 81.0612 31.1802C79.6797 29.9067 78.7069 28.2523 78.2657 26.426C77.8244 24.5996 77.9347 22.6835 78.5824 20.9199C79.2302 19.1562 80.3864 17.6242 81.9048 16.5176C83.4232 15.411 85.2356 14.7795 87.1129 14.703C88.9902 14.6264 90.848 15.1082 92.4515 16.0875C94.055 17.0668 95.3321 18.4996 96.1213 20.2046C96.9105 21.9097 97.1764 23.8105 96.8853 25.6667C96.6921 26.8993 96.2579 28.0818 95.6075 29.1466C94.9572 30.2114 94.1035 31.1377 93.0952 31.8725C92.0869 32.6074 90.9437 33.1364 89.7309 33.4294C88.5181 33.7224 87.2594 33.7736 86.0268 33.5801Z" fill="#E7332A"/>
<path d="M42.7477 45.5965C41.1853 45.3488 39.7314 44.6436 38.5698 43.5698C37.4081 42.496 36.5909 41.102 36.2213 39.5639C35.8518 38.0257 35.9466 36.4126 36.4937 34.9283C37.0408 33.444 38.0156 32.1553 39.295 31.2249C40.5744 30.2946 42.1009 29.7644 43.6816 29.7014C45.2622 29.6384 46.826 30.0455 48.1754 30.8711C49.5247 31.6968 50.599 32.9039 51.2624 34.34C51.9259 35.776 52.1487 37.3765 51.9027 38.9392C51.7392 39.9777 51.3726 40.9737 50.8239 41.8704C50.2753 42.7672 49.5552 43.547 48.705 44.1653C47.8547 44.7835 46.891 45.2281 45.8688 45.4737C44.8466 45.7193 43.7861 45.761 42.7477 45.5965Z" fill="#E7332A"/>
<path d="M4.22831 55.6351C3.25085 55.4824 2.34065 55.0432 1.61291 54.3731C0.885172 53.7029 0.372602 52.8319 0.140073 51.8703C-0.0924566 50.9087 -0.0344935 49.8997 0.306626 48.971C0.647746 48.0424 1.25669 47.2358 2.05639 46.6534C2.85609 46.071 3.8106 45.7389 4.79912 45.6991C5.78763 45.6594 6.76572 45.9138 7.60961 46.4301C8.45349 46.9464 9.12522 47.7015 9.5398 48.5998C9.95438 49.498 10.0932 50.4991 9.93859 51.4763C9.73166 52.7844 9.01418 53.957 7.94361 54.7367C6.87304 55.5164 5.53685 55.8395 4.22831 55.6351Z" fill="#E7332A"/>
<path d="M126.963 55.4022L137.305 19.0575L128.536 17.6686L126.963 55.4022Z" fill="#E7332A"/>
<path d="M172.243 56.734L182.252 19.0575L173.483 17.6686L172.243 56.734Z" fill="#E7332A"/>
<path d="M263.248 61.1734L272.857 24.0989L265.892 22.9958L263.248 61.1734Z" fill="#E7332A"/>
<path d="M83.8377 53.8579L90.4966 32.1056L83.4304 30.9864L83.8377 53.8579Z" fill="#E7332A"/>
<path d="M218.855 61.6173L229.308 22.609L220.539 21.2201L218.855 61.6173Z" fill="#E7332A"/>
<path d="M40.1744 58.9538L48.9436 35.9268L40.1744 34.5379L40.1744 58.9538Z" fill="#E7332A"/>
<path d="M308.483 41.6211C307.213 41.4354 306.032 40.9064 305.088 40.1011C304.144 39.2958 303.48 38.2503 303.18 37.0967C302.88 35.9431 302.957 34.7332 303.401 33.62C303.846 32.5068 304.638 31.5402 305.677 30.8425C306.717 30.1447 307.957 29.7471 309.241 29.6998C310.526 29.6526 311.796 29.9579 312.892 30.5771C313.989 31.1963 314.862 32.1017 315.401 33.1787C315.94 34.2558 316.121 35.4562 315.921 36.6282C315.788 37.407 315.49 38.1541 315.044 38.8266C314.599 39.4991 314.014 40.084 313.323 40.5477C312.632 41.0114 311.849 41.3449 311.018 41.5291C310.188 41.7132 309.326 41.7445 308.483 41.6211Z" fill="#E7332A"/>
<path d="M305.303 62.0165L313.144 36.4996L306.078 35.3805L305.303 62.0165Z" fill="#E7332A"/>
<path d="M131.292 25.5676C129.142 25.2451 127.142 24.3214 125.542 22.9134C123.943 21.5054 122.817 19.6763 122.307 17.6574C121.797 15.6385 121.925 13.5205 122.676 11.5713C123.427 9.62214 124.766 7.92925 126.525 6.7068C128.284 5.48435 130.383 4.78722 132.557 4.70359C134.731 4.61995 136.882 5.15358 138.738 6.23696C140.594 7.32033 142.072 8.90482 142.985 10.79C143.898 12.6752 144.205 14.7764 143.866 16.828C143.413 19.5785 141.833 22.0443 139.475 23.6833C137.117 25.3222 134.173 26 131.292 25.5676Z" fill="#E7332A"/>
<path d="M343.406 76.7036L350.174 58.5461L343.895 57.6219L343.406 76.7036Z" fill="#E7332A"/>
<path d="M347.061 61.6211C345.889 61.4354 344.799 60.9064 343.927 60.1011C343.056 59.2958 342.443 58.2503 342.166 57.0967C341.889 55.9431 341.96 54.7332 342.37 53.62C342.781 52.5068 343.512 51.5402 344.471 50.8425C345.431 50.1447 346.576 49.7471 347.761 49.6998C348.947 49.6526 350.12 49.9579 351.132 50.5771C352.144 51.1963 352.949 52.1017 353.447 53.1787C353.944 54.2558 354.112 55.4562 353.927 56.6282C353.804 57.407 353.529 58.1541 353.118 58.8266C352.706 59.4991 352.166 60.084 351.529 60.5477C350.891 61.0114 350.168 61.3449 349.402 61.5291C348.635 61.7132 347.84 61.7445 347.061 61.6211Z" fill="#E7332A"/>
</svg>
