<svg width="428" height="229" viewBox="0 0 428 229" fill="none" xmlns="http://www.w3.org/2000/svg">
    <path
        d="M198.984 25.8447C196.444 25.4458 194.079 24.3026 192.189 22.5596C190.298 20.8167 188.967 18.5523 188.363 16.0528C187.76 13.5532 187.911 10.9309 188.798 8.51726C189.684 6.10365 191.267 4.0072 193.345 2.49305C195.424 0.978895 197.904 0.115042 200.474 0.0107094C203.043 -0.0936236 205.585 0.56627 207.779 1.90692C209.974 3.24757 211.721 5.20876 212.801 7.54252C213.88 9.87627 214.244 12.4778 213.845 15.018C213.306 18.4225 211.439 21.4744 208.653 23.504C205.867 25.5337 202.39 26.3755 198.984 25.8447Z"
        fill="#E7332A" />
    <path
        d="M253.436 26.8686C251.287 26.5311 249.286 25.5637 247.686 24.0889C246.087 22.6141 244.96 20.6981 244.449 18.5831C243.939 16.4681 244.067 14.2492 244.817 12.2069C245.567 10.1646 246.907 8.3907 248.665 7.1095C250.424 5.8283 252.523 5.09734 254.697 5.00906C256.871 4.92078 259.022 5.47915 260.879 6.61355C262.735 7.74795 264.214 9.40742 265.127 11.3821C266.041 13.3568 266.348 15.5581 266.011 17.7075C265.555 20.5883 263.975 23.1706 261.618 24.888C259.26 26.6055 256.318 27.3177 253.436 26.8686Z"
        fill="#E7332A" />
    <path
        d="M302.909 31.9022C301.345 31.6581 299.889 30.9556 298.725 29.8838C297.561 28.8119 296.741 27.4188 296.368 25.8807C295.996 24.3426 296.088 22.7287 296.634 21.2431C297.179 19.7574 298.152 18.4669 299.431 17.5348C300.71 16.6027 302.237 16.0709 303.818 16.0066C305.399 15.9423 306.964 16.3485 308.314 17.1738C309.664 17.9991 310.74 19.2063 311.404 20.6428C312.068 22.0793 312.291 23.6804 312.044 25.2437C311.883 26.2812 311.518 27.2767 310.971 28.1732C310.425 29.0697 309.706 29.8494 308.858 30.4679C308.009 31.0864 307.047 31.5315 306.026 31.7776C305.005 32.0237 303.946 32.0661 302.909 31.9022Z"
        fill="#E7332A" />
    <path
        d="M97.0342 37.2942C94.885 36.9568 92.8841 35.9897 91.2845 34.5152C89.6849 33.0407 88.5585 31.125 88.0476 29.0103C87.5367 26.8957 87.6644 24.677 88.4144 22.6349C89.1644 20.5927 90.5032 18.8188 92.2613 17.5375C94.0195 16.2562 96.1181 15.525 98.2918 15.4364C100.466 15.3477 102.617 15.9056 104.473 17.0395C106.33 18.1734 107.809 19.8324 108.723 21.8067C109.636 23.781 109.944 25.9819 109.607 28.1312C109.383 29.5584 108.881 30.9276 108.128 32.1606C107.375 33.3935 106.386 34.466 105.219 35.3169C104.051 36.1678 102.727 36.7804 101.323 37.1196C99.9188 37.4589 98.4614 37.5182 97.0342 37.2942Z"
        fill="#E7332A" />
    <path
        d="M48.2912 50.8303C46.5335 50.5518 44.8978 49.7583 43.5909 48.5504C42.2841 47.3424 41.3647 45.7741 40.949 44.0437C40.5332 42.3133 40.6399 40.4985 41.2553 38.8287C41.8708 37.1588 42.9675 35.709 44.4069 34.6624C45.8462 33.6157 47.5635 33.0193 49.3417 32.9484C51.1199 32.8776 52.8792 33.3355 54.3973 34.2644C55.9153 35.1932 57.1238 36.5512 57.8702 38.1668C58.6166 39.7824 58.8672 41.5829 58.5905 43.3409C58.4065 44.5092 57.9942 45.6298 57.3769 46.6386C56.7596 47.6474 55.9496 48.5247 54.9931 49.2202C54.0365 49.9158 52.9523 50.416 51.8024 50.6923C50.6524 50.9685 49.4593 51.0155 48.2912 50.8303Z"
        fill="#E7332A" />
    <path
        d="M4.65114 61.9341C3.57593 61.7661 2.57472 61.283 1.7742 60.5458C0.973689 59.8086 0.409863 58.8505 0.15408 57.7927C-0.101702 56.735 -0.0379429 55.6251 0.337289 54.6036C0.712521 53.5821 1.38236 52.6948 2.26203 52.0542C3.1417 51.4135 4.19166 51.0482 5.27903 51.0044C6.3664 50.9607 7.4423 51.2406 8.37056 51.8085C9.29883 52.3765 10.0377 53.2071 10.4938 54.1952C10.9498 55.1833 11.1025 56.2845 10.9324 57.3593C10.7048 58.7983 9.91559 60.0881 8.73797 60.9458C7.56034 61.8035 6.09054 62.1589 4.65114 61.9341Z"
        fill="#E7332A" />
    <path
        d="M229.158 202.708C231.698 203.106 234.063 204.25 235.953 205.993C237.844 207.736 239.175 210 239.779 212.499C240.382 214.999 240.231 217.621 239.344 220.035C238.457 222.449 236.875 224.545 234.796 226.059C232.718 227.573 230.238 228.437 227.668 228.542C225.099 228.646 222.557 227.986 220.362 226.645C218.168 225.305 216.421 223.343 215.341 221.01C214.262 218.676 213.898 216.074 214.297 213.534C214.836 210.13 216.703 207.078 219.489 205.048C222.275 203.018 225.752 202.177 229.158 202.708Z"
        fill="#00AB96" />
    <path
        d="M174.705 201.684C176.855 202.021 178.856 202.988 180.456 204.463C182.055 205.938 183.182 207.854 183.692 209.969C184.203 212.084 184.075 214.303 183.325 216.345C182.574 218.388 181.235 220.162 179.477 221.443C177.718 222.724 175.619 223.455 173.445 223.543C171.271 223.631 169.12 223.073 167.263 221.939C165.407 220.804 163.928 219.145 163.015 217.17C162.101 215.195 161.794 212.994 162.131 210.845C162.587 207.964 164.167 205.382 166.524 203.664C168.881 201.947 171.824 201.235 174.705 201.684Z"
        fill="#00AB96" />
    <path
        d="M125.233 196.65C126.797 196.894 128.253 197.597 129.417 198.668C130.581 199.74 131.401 201.133 131.774 202.671C132.146 204.21 132.054 205.824 131.508 207.309C130.963 208.795 129.989 210.085 128.711 211.017C127.432 211.95 125.905 212.481 124.324 212.546C122.743 212.61 121.178 212.204 119.828 211.378C118.477 210.553 117.402 209.346 116.738 207.909C116.074 206.473 115.851 204.872 116.098 203.309C116.259 202.271 116.624 201.275 117.17 200.379C117.717 199.483 118.435 198.703 119.284 198.084C120.133 197.466 121.095 197.021 122.116 196.775C123.136 196.529 124.196 196.486 125.233 196.65Z"
        fill="#00AB96" />
    <path
        d="M379.851 177.722C381.608 178 383.244 178.794 384.551 180.002C385.858 181.21 386.777 182.778 387.193 184.509C387.609 186.239 387.502 188.054 386.887 189.724C386.271 191.393 385.174 192.843 383.735 193.89C382.296 194.937 380.578 195.533 378.8 195.604C377.022 195.675 375.263 195.217 373.745 194.288C372.227 193.359 371.018 192.001 370.272 190.385C369.525 188.77 369.275 186.969 369.551 185.211C369.735 184.043 370.148 182.922 370.765 181.914C371.382 180.905 372.192 180.028 373.149 179.332C374.105 178.636 375.19 178.136 376.339 177.86C377.489 177.584 378.683 177.537 379.851 177.722Z"
        fill="#00AB96" />
    <path
        d="M423.349 166.728C424.424 166.896 425.425 167.379 426.226 168.116C427.026 168.853 427.59 169.811 427.846 170.869C428.102 171.927 428.038 173.037 427.663 174.058C427.287 175.08 426.618 175.967 425.738 176.608C424.858 177.248 423.808 177.614 422.721 177.657C421.634 177.701 420.558 177.421 419.629 176.853C418.701 176.285 417.962 175.455 417.506 174.467C417.05 173.479 416.898 172.377 417.068 171.303C417.295 169.864 418.084 168.574 419.262 167.716C420.44 166.858 421.909 166.503 423.349 166.728Z"
        fill="#00AB96" />
    <path
        d="M280.266 200.698C282.61 201.066 284.793 202.122 286.538 203.731C288.282 205.34 289.511 207.431 290.067 209.738C290.624 212.045 290.484 214.466 289.665 216.694C288.845 218.921 287.384 220.856 285.465 222.253C283.547 223.65 281.257 224.447 278.885 224.542C276.514 224.638 274.167 224.028 272.142 222.79C270.117 221.552 268.505 219.741 267.509 217.587C266.513 215.432 266.179 213.031 266.548 210.686C267.043 207.543 268.766 204.724 271.338 202.851C273.911 200.978 277.122 200.204 280.266 200.698Z"
        fill="#00AB96" />
    <path d="M130.5 166.162L119 207.184L128.877 208.749L130.5 166.162Z" fill="#00AB96" />
    <path d="M143 61.5L154.649 20.5643L144.772 19L143 61.5Z" fill="#E7332A" />
    <path d="M182 164.162L170 204.813L179.877 206.377L182 164.162Z" fill="#00AB96" />
    <path d="M194 63L205.273 20.5643L195.397 19L194 63Z" fill="#E7332A" />
    <path d="M285 168.662L274 211.332L281.844 212.574L285 168.662Z" fill="#00AB96" />
    <path d="M296.5 68L307.323 26.2424L299.479 25L296.5 68Z" fill="#E7332A" />
    <path d="M94.4277 59.7605L101.928 35.2605L93.969 34L94.4277 59.7605Z" fill="#E7332A" />
    <path d="M235 164.662L223 208.813L232.877 210.377L235 164.662Z" fill="#00AB96" />
    <path d="M246.5 68.5L258.273 24.5643L248.397 23L246.5 68.5Z" fill="#E7332A" />
    <path d="M45.2491 65.5L55.126 39.5643L45.2491 38L45.2491 65.5Z" fill="#E7332A" />
    <path d="M38.0502 142.677L30.4272 163.128L37.5 164.169L38.0502 142.677Z" fill="#00AB96" />
    <path d="M382.877 161.553L373 187.489L382.877 189.053L382.877 161.553Z" fill="#00AB96" />
    <path
        d="M80.0957 182.697C81.4628 182.914 82.735 183.531 83.7514 184.471C84.7679 185.41 85.483 186.63 85.8063 187.976C86.1297 189.322 86.0467 190.733 85.568 192.032C85.0893 193.331 84.2363 194.458 83.1169 195.272C81.9974 196.086 80.6617 196.55 79.2786 196.605C77.8956 196.66 76.5272 196.304 75.3465 195.582C74.1659 194.859 73.2259 193.803 72.6454 192.547C72.0649 191.29 71.8699 189.89 72.0852 188.522C72.2282 187.614 72.549 186.742 73.0291 185.957C73.5091 185.173 74.1392 184.491 74.8831 183.95C75.6271 183.409 76.4704 183.019 77.3648 182.805C78.2592 182.59 79.1872 182.553 80.0957 182.697Z"
        fill="#00AB96" />
    <path d="M83.8729 159.661L75.0413 188.401L83 189.662L83.8729 159.661Z" fill="#00AB96" />
    <path
        d="M330.706 191.317C332.855 191.654 334.856 192.621 336.455 194.096C338.055 195.57 339.182 197.486 339.692 199.601C340.203 201.715 340.076 203.934 339.326 205.976C338.576 208.018 337.237 209.792 335.479 211.073C333.721 212.355 331.622 213.086 329.448 213.175C327.274 213.263 325.123 212.705 323.267 211.571C321.41 210.437 319.931 208.778 319.017 206.804C318.104 204.83 317.796 202.629 318.133 200.48C318.357 199.052 318.859 197.683 319.612 196.45C320.365 195.217 321.354 194.145 322.521 193.294C323.689 192.443 325.013 191.831 326.417 191.491C327.821 191.152 329.279 191.093 330.706 191.317Z"
        fill="#00AB96" />
    <path d="M333.312 168.85L325.812 193.35L333.771 194.611L333.312 168.85Z" fill="#00AB96" />
    <path
        d="M347.644 45.9137C346.277 45.697 345.005 45.0799 343.989 44.1404C342.972 43.2009 342.257 41.9811 341.934 40.6352C341.61 39.2893 341.693 37.8778 342.172 36.5791C342.651 35.2803 343.504 34.1527 344.623 33.3386C345.743 32.5246 347.078 32.0606 348.461 32.0055C349.844 31.9505 351.213 32.3066 352.393 33.0291C353.574 33.7515 354.514 34.8077 355.095 36.0643C355.675 37.3208 355.87 38.7213 355.655 40.0886C355.512 40.9973 355.191 41.8688 354.711 42.6535C354.231 43.4381 353.601 44.1204 352.857 44.6614C352.113 45.2024 351.27 45.5914 350.375 45.8063C349.481 46.0212 348.553 46.0577 347.644 45.9137Z"
        fill="#E7332A" />
    <path d="M343.867 68.9497L352.699 40.2096L344.74 38.9491L343.867 68.9497Z" fill="#E7332A" />
    <path
        d="M147.876 27.8544C145.532 27.4857 143.349 26.4301 141.604 24.8209C139.86 23.2118 138.631 21.1214 138.075 18.8141C137.518 16.5068 137.658 14.0862 138.477 11.8586C139.296 9.63094 140.758 7.69621 142.676 6.29912C144.595 4.90204 146.885 4.10532 149.257 4.00974C151.628 3.91416 153.975 4.52402 156 5.76216C158.025 7.0003 159.637 8.81114 160.633 10.9656C161.629 13.1201 161.963 15.5216 161.594 17.8662C161.099 21.0096 159.376 23.8277 156.803 25.7008C154.231 27.5739 151.02 28.3486 147.876 27.8544Z"
        fill="#E7332A" />
    <path
        d="M34.0957 159.256C35.4628 159.472 36.735 160.089 37.7514 161.029C38.7679 161.969 39.483 163.188 39.8063 164.534C40.1297 165.88 40.0467 167.292 39.568 168.59C39.0893 169.889 38.2363 171.017 37.1169 171.831C35.9974 172.645 34.6617 173.109 33.2786 173.164C31.8956 173.219 30.5272 172.863 29.3465 172.14C28.1659 171.418 27.2259 170.362 26.6454 169.105C26.0648 167.849 25.8699 166.448 26.0852 165.081C26.2282 164.172 26.549 163.301 27.029 162.516C27.5091 161.731 28.1392 161.049 28.8831 160.508C29.6271 159.967 30.4704 159.578 31.3648 159.363C32.2592 159.148 33.1872 159.112 34.0957 159.256Z"
        fill="#00AB96" />
    <path d="M386.784 85.492L394.407 65.041L387.334 64L386.784 85.492Z" fill="#E7332A" />
    <path
        d="M390.739 68.9137C389.371 68.697 388.099 68.0799 387.083 67.1404C386.066 66.2009 385.351 64.9811 385.028 63.6352C384.705 62.2893 384.787 60.8778 385.266 59.5791C385.745 58.2803 386.598 57.1527 387.717 56.3386C388.837 55.5246 390.173 55.0606 391.556 55.0055C392.939 54.9505 394.307 55.3066 395.488 56.0291C396.668 56.7515 397.608 57.8077 398.189 59.0643C398.769 60.3208 398.964 61.7213 398.749 63.0886C398.606 63.9973 398.285 64.8688 397.805 65.6535C397.325 66.4381 396.695 67.1204 395.951 67.6614C395.207 68.2024 394.364 68.5914 393.469 68.8063C392.575 69.0212 391.647 69.0577 390.739 68.9137Z"
        fill="#E7332A" />
</svg>