<svg width="354" height="77" viewBox="0 0 354 77" fill="none" xmlns="http://www.w3.org/2000/svg">
<path d="M177.284 53.7473C179.531 54.1001 181.623 55.1114 183.295 56.6533C184.967 58.1951 186.145 60.1982 186.679 62.4093C187.213 64.6205 187.079 66.9403 186.294 69.0754C185.51 71.2105 184.11 73.065 182.272 74.4045C180.433 75.7439 178.239 76.5081 175.967 76.6004C173.694 76.6927 171.445 76.1089 169.504 74.923C167.563 73.737 166.018 72.0021 165.063 69.9376C164.108 67.8732 163.786 65.5718 164.139 63.3247C164.616 60.313 166.267 57.6133 168.731 55.8178C171.196 54.0223 174.271 53.2777 177.284 53.7473Z" fill="#00AB96"/>
<path d="M128.974 52.7234C130.83 53.0149 132.558 53.8503 133.939 55.124C135.321 56.3977 136.294 58.0524 136.735 59.879C137.176 61.7056 137.065 63.6219 136.417 65.3857C135.769 67.1495 134.613 68.6815 133.094 69.788C131.575 70.8945 129.763 71.5258 127.885 71.602C126.008 71.6783 124.15 71.1961 122.547 70.2163C120.944 69.2366 119.667 67.8035 118.878 66.098C118.089 64.3926 117.824 62.4915 118.115 60.6352C118.509 58.1473 119.873 55.9171 121.909 54.4338C123.944 52.9506 126.485 52.3355 128.974 52.7234Z" fill="#00AB96"/>
<path d="M85.0798 47.7016C86.4481 47.9304 87.7223 48.589 88.7411 49.5938C89.76 50.5987 90.4777 51.9047 90.8035 53.3467C91.1293 54.7886 91.0486 56.3017 90.5714 57.6945C90.0943 59.0873 89.2422 60.2971 88.1231 61.171C87.0039 62.0449 85.668 62.5434 84.2843 62.6037C82.9005 62.6639 81.5312 62.2831 80.3496 61.5094C79.1679 60.7357 78.227 59.6039 77.646 58.2572C77.0649 56.9105 76.8698 55.4095 77.0853 53.9439C77.2266 52.9712 77.5457 52.0379 78.0242 51.1975C78.5027 50.3571 79.1312 49.626 79.8738 49.0462C80.6164 48.4663 81.4585 48.0491 82.3518 47.8184C83.2451 47.5876 84.1721 47.5479 85.0798 47.7016Z" fill="#00AB96"/>
<path d="M267.973 43.7248C269.829 44.0161 271.557 44.8513 272.939 46.1248C274.32 47.3982 275.293 49.0527 275.734 50.879C276.176 52.7053 276.065 54.6214 275.418 56.3851C274.77 58.1487 273.614 59.6807 272.095 60.7873C270.577 61.8939 268.764 62.5254 266.887 62.602C265.01 62.6785 263.152 62.1967 261.548 61.2174C259.945 60.2381 258.668 58.8054 257.879 57.1003C257.09 55.3952 256.824 53.4944 257.115 51.6383C257.308 50.4056 257.742 49.2232 258.392 48.1583C259.043 47.0935 259.896 46.1672 260.905 45.4324C261.913 44.6975 263.056 44.1685 264.269 43.8755C265.482 43.5825 266.741 43.5313 267.973 43.7248Z" fill="#00AB96"/>
<path d="M311.252 31.7085C312.815 31.9561 314.269 32.6614 315.43 33.7351C316.592 34.8089 317.409 36.2029 317.779 37.7411C318.148 39.2792 318.053 40.8924 317.506 42.3766C316.959 43.8609 315.984 45.1497 314.705 46.08C313.426 47.0104 311.899 47.5406 310.318 47.6035C308.738 47.6665 307.174 47.2594 305.825 46.4338C304.475 45.6082 303.401 44.401 302.738 42.965C302.074 41.5289 301.851 39.9284 302.097 38.3658C302.261 37.3273 302.627 36.3312 303.176 35.4345C303.725 34.5378 304.445 33.758 305.295 33.1397C306.145 32.5214 307.109 32.0768 308.131 31.8312C309.153 31.5856 310.214 31.5439 311.252 31.7085Z" fill="#00AB96"/>
<path d="M349.772 21.6698C350.749 21.8225 351.659 22.2617 352.387 22.9319C353.115 23.6021 353.627 24.4731 353.86 25.4347C354.092 26.3963 354.034 27.4052 353.693 28.3339C353.352 29.2625 352.743 30.0691 351.944 30.6515C351.144 31.234 350.189 31.5661 349.201 31.6058C348.212 31.6456 347.234 31.3912 346.39 30.8748C345.547 30.3585 344.875 29.6034 344.46 28.7051C344.046 27.8069 343.907 26.8058 344.061 25.8287C344.268 24.5205 344.986 23.3479 346.056 22.5682C347.127 21.7885 348.463 21.4654 349.772 21.6698Z" fill="#00AB96"/>
<path d="M227.037 21.9027L216.695 58.2474L225.464 59.6363L227.037 21.9027Z" fill="#00AB96"/>
<path d="M181.757 20.5709L171.748 58.2474L180.517 59.6363L181.757 20.5709Z" fill="#00AB96"/>
<path d="M90.7523 16.1316L81.1429 53.2061L88.1077 54.3092L90.7523 16.1316Z" fill="#00AB96"/>
<path d="M270.162 23.447L263.503 45.1993L270.57 46.3185L270.162 23.447Z" fill="#00AB96"/>
<path d="M135.145 15.6877L124.692 54.6959L133.461 56.0848L135.145 15.6877Z" fill="#00AB96"/>
<path d="M313.826 18.3512L305.056 41.3782L313.826 42.7671L313.826 18.3512Z" fill="#00AB96"/>
<path d="M45.5175 35.6838C46.7869 35.8695 47.9682 36.3985 48.9121 37.2038C49.8559 38.0091 50.5199 39.0547 50.8202 40.2083C51.1204 41.3619 51.0434 42.5717 50.5989 43.685C50.1544 44.7982 49.3623 45.7647 48.3228 46.4625C47.2833 47.1602 46.043 47.5579 44.7587 47.6051C43.4745 47.6523 42.2038 47.347 41.1075 46.7278C40.0112 46.1086 39.1383 45.2032 38.5993 44.1262C38.0602 43.0491 37.8792 41.8488 38.0791 40.6768C38.2119 39.8979 38.5097 39.1509 38.9556 38.4783C39.4014 37.8058 39.9864 37.2209 40.6772 36.7572C41.368 36.2935 42.1511 35.9601 42.9816 35.7759C43.8121 35.5917 44.6738 35.5604 45.5175 35.6838Z" fill="#00AB96"/>
<path d="M48.6974 15.2884L40.8562 40.8053L47.9224 41.9245L48.6974 15.2884Z" fill="#00AB96"/>
<path d="M222.708 51.7373C224.858 52.0598 226.858 52.9835 228.458 54.3915C230.057 55.7996 231.183 57.6287 231.693 59.6476C232.203 61.6664 232.075 63.7844 231.324 65.7336C230.573 67.6828 229.234 69.3757 227.475 70.5981C225.716 71.8206 223.617 72.5177 221.443 72.6013C219.269 72.685 217.118 72.1514 215.262 71.068C213.406 69.9846 211.928 68.4001 211.015 66.5149C210.102 64.6297 209.795 62.5285 210.134 60.477C210.587 57.7265 212.167 55.2606 214.525 53.6216C216.883 51.9827 219.827 51.3049 222.708 51.7373Z" fill="#00AB96"/>
<path d="M10.5936 0.601336L3.82556 18.7588L10.1051 19.6831L10.5936 0.601336Z" fill="#00AB96"/>
<path d="M6.93919 15.6838C8.11099 15.8695 9.20143 16.3985 10.0727 17.2038C10.9439 18.0091 11.5568 19.0547 11.834 20.2083C12.1111 21.3619 12.0401 22.5717 11.6297 23.685C11.2194 24.7982 10.4883 25.7647 9.52873 26.4625C8.56919 27.1602 7.42432 27.5579 6.23883 27.6051C5.05335 27.6523 3.88048 27.347 2.86847 26.7278C1.85646 26.1086 1.05074 25.2032 0.553165 24.1262C0.0555918 23.0491 -0.111504 21.8488 0.073001 20.6768C0.195616 19.8979 0.470538 19.1509 0.88205 18.4783C1.29356 17.8058 1.83359 17.2209 2.47127 16.7572C3.10895 16.2935 3.83177 15.9601 4.5984 15.7759C5.36504 15.5917 6.16046 15.5604 6.93919 15.6838Z" fill="#00AB96"/>
</svg>
